<?xml version="1.0" standalone="no"?>
<!DOCTYPE svg PUBLIC "-//W3C//DTD SVG 20010904//EN"
 "http://www.w3.org/TR/2001/REC-SVG-20010904/DTD/svg10.dtd">
<svg version="1.0" xmlns="http://www.w3.org/2000/svg"
 width="261.000000pt" height="261.000000pt" viewBox="0 0 261.000000 261.000000"
 preserveAspectRatio="xMidYMid meet">
<metadata>
Created by potrace 1.14, written by Peter Selinger 2001-2017
</metadata>
<g transform="translate(0.000000,261.000000) scale(0.100000,-0.100000)"
fill="#000000" stroke="none">
<path d="M0 1619 c0 -533 4 -968 8 -965 21 13 72 139 81 197 10 73 -3 354 -19
409 -19 65 -13 84 38 132 67 62 110 154 124 263 13 100 12 100 133 142 44 15
86 33 93 40 7 7 18 13 23 13 19 0 72 65 96 117 18 40 26 78 30 150 7 112 17
127 113 171 96 43 174 82 218 109 44 26 114 47 282 84 124 27 209 23 268 -15
23 -14 42 -31 42 -36 0 -6 4 -10 10 -10 18 0 105 -73 104 -86 -1 -8 2 -11 7
-8 13 8 70 -22 113 -61 22 -19 55 -66 75 -104 20 -38 61 -96 91 -129 30 -34
64 -72 75 -87 36 -47 116 -120 153 -141 51 -28 134 -53 216 -65 38 -5 72 -12
75 -14 2 -3 12 -28 22 -55 10 -28 37 -79 60 -112 36 -53 43 -74 53 -144 6 -45
14 -86 19 -90 4 -4 7 279 7 629 l0 637 -1305 0 -1305 0 0 -971z"/>
<path d="M1322 2483 c-6 -2 -10 -8 -8 -12 3 -4 -1 -8 -9 -8 -8 0 -15 4 -15 9
0 5 -5 6 -10 3 -6 -4 -8 -10 -5 -14 2 -5 -7 -6 -21 -3 -16 3 -30 -1 -35 -9 -7
-12 -9 -12 -9 0 0 11 -3 11 -15 1 -8 -6 -19 -9 -24 -6 -5 4 -14 -2 -20 -11 -7
-12 -10 -13 -11 -4 0 10 -6 10 -26 -4 -15 -9 -23 -12 -20 -6 10 15 -6 14 -29
-3 -11 -8 -26 -11 -34 -8 -10 4 -12 1 -6 -8 5 -9 4 -11 -4 -6 -6 4 -19 2 -28
-6 -14 -11 -15 -11 -9 0 7 11 4 11 -13 0 -12 -7 -21 -17 -21 -21 0 -5 -6 -7
-14 -4 -14 6 -31 -19 -27 -37 1 -5 -5 -4 -13 3 -12 10 -18 9 -33 -6 -10 -10
-28 -20 -38 -21 -11 -2 -26 -9 -34 -15 -8 -7 -22 -11 -33 -9 -10 2 -18 -2 -18
-7 0 -6 -3 -10 -7 -10 -20 3 -34 -2 -28 -11 3 -5 -1 -10 -10 -10 -20 0 -58
-35 -61 -55 -1 -8 1 -13 6 -10 5 3 7 -3 5 -12 -2 -10 -4 -18 -5 -18 -1 0 -3
-15 -5 -32 -1 -18 2 -33 7 -33 5 0 6 -5 3 -10 -4 -6 -10 -8 -14 -5 -5 2 -6 -7
-3 -20 2 -14 -1 -32 -8 -40 -9 -10 -9 -19 -2 -27 7 -9 5 -19 -8 -35 -9 -12
-20 -19 -24 -16 -3 4 -6 -6 -6 -20 0 -16 -5 -26 -12 -24 -7 1 -12 -6 -12 -15
1 -10 -2 -15 -7 -12 -5 3 -17 0 -26 -5 -14 -8 -15 -11 -3 -11 8 0 -1 -8 -20
-17 -19 -9 -38 -15 -42 -15 -5 1 -8 -6 -8 -15 0 -13 -3 -14 -12 -5 -7 7 -17
12 -23 12 -5 0 -3 -5 5 -10 13 -8 12 -10 -2 -10 -10 0 -18 -6 -18 -12 0 -9 -3
-9 -9 1 -8 12 -12 12 -25 2 -9 -8 -16 -10 -16 -6 0 4 -6 3 -13 -3 -6 -6 -16
-12 -22 -14 -5 -1 -9 -9 -9 -16 2 -10 -1 -10 -12 -1 -9 8 -14 8 -14 1 0 -6 5
-14 11 -17 7 -5 4 -14 -8 -28 -10 -11 -12 -17 -5 -13 8 5 12 -1 12 -19 0 -14
-4 -24 -8 -21 -4 2 -9 -5 -9 -17 -1 -12 3 -25 10 -29 8 -5 3 -8 -13 -9 l-25
-1 25 -8 c19 -6 20 -8 6 -9 -15 -1 -16 -4 -6 -16 11 -13 10 -14 -6 -8 -16 6
-17 5 -6 -9 11 -14 10 -16 -10 -12 -13 2 -17 2 -10 -2 16 -7 16 -25 0 -21 -8
1 -13 -10 -13 -30 0 -26 -2 -29 -14 -20 -12 10 -12 9 -2 -10 11 -21 8 -27 -11
-24 -5 0 -8 -4 -8 -10 0 -5 -6 -7 -12 -3 -10 6 -10 4 0 -7 15 -16 16 -29 1
-29 -5 0 -7 5 -4 10 12 19 -14 10 -28 -10 -8 -11 -17 -17 -22 -12 -4 4 -3 -2
3 -13 13 -26 -4 -66 -20 -44 -8 11 -9 11 -5 -1 2 -8 9 -14 15 -13 5 1 12 -11
14 -27 3 -17 1 -30 -4 -30 -5 0 -6 -5 -3 -10 4 -6 9 -8 13 -6 4 2 7 -9 7 -24
1 -16 -3 -26 -7 -24 -4 3 -8 0 -8 -5 0 -6 5 -11 10 -11 6 0 10 -7 10 -15 0 -8
-5 -15 -11 -15 -5 0 -7 5 -3 12 5 7 3 8 -6 3 -10 -6 -10 -11 3 -20 20 -14 22
-35 5 -35 -10 0 -9 -3 1 -9 9 -6 10 -11 2 -15 -6 -4 -11 -12 -11 -18 0 -6 6
-6 15 2 9 7 18 10 22 6 3 -3 1 -6 -5 -6 -7 0 -12 -9 -12 -19 0 -11 -5 -23 -10
-26 -6 -3 -10 -12 -10 -18 0 -7 4 -6 10 3 8 12 10 9 10 -13 0 -16 -4 -26 -9
-23 -13 8 -4 -43 11 -61 11 -14 10 -15 -12 -9 -14 4 -20 4 -15 -1 12 -9 13
-28 2 -39 -4 -4 -7 -12 -7 -18 0 -5 6 -2 13 7 9 13 16 14 27 6 13 -9 12 -10
-3 -5 -9 3 -17 0 -17 -6 0 -6 -7 -16 -15 -22 -8 -6 -17 -21 -20 -34 -2 -12 -7
-27 -11 -34 -5 -8 -2 -9 11 -4 15 5 16 4 5 -9 -7 -8 -16 -13 -20 -10 -4 3 -14
-3 -21 -13 -12 -15 -12 -16 2 -4 14 11 17 9 17 -12 0 -18 -8 -28 -29 -35 -32
-11 -40 -26 -9 -16 11 4 20 2 20 -4 0 -6 -3 -10 -8 -10 -24 4 -42 -2 -36 -13
5 -7 2 -9 -7 -6 -20 8 -22 -30 -3 -49 8 -8 11 -20 7 -26 -4 -7 1 -6 10 2 16
13 22 8 17 -14 -1 -5 8 -1 19 9 21 19 21 19 21 0 1 -18 1 -18 14 -1 11 15 15
15 25 3 9 -11 9 -16 0 -22 -8 -4 -9 -3 -5 4 4 7 2 12 -4 12 -7 0 -10 -6 -8
-12 5 -15 35 -17 63 -4 18 9 19 8 5 -9 -14 -17 -13 -18 7 -13 15 4 20 2 17 -7
-3 -7 0 -16 7 -21 7 -4 10 -3 5 4 -3 6 -2 14 4 17 6 4 10 3 9 -2 -3 -20 2 -34
10 -28 12 7 33 -29 23 -40 -4 -5 -2 -5 5 -1 6 3 10 15 8 26 -2 12 0 18 5 15 4
-3 7 -16 6 -29 -2 -18 1 -23 12 -18 11 4 14 1 10 -10 -7 -18 26 -50 45 -43 7
3 21 -1 32 -10 14 -10 15 -14 5 -13 -8 2 -18 7 -22 13 -4 5 -10 6 -15 2 -9 -9
17 -28 29 -21 4 3 8 1 8 -4 0 -5 6 -9 14 -9 8 0 12 6 9 13 -2 6 1 15 8 20 8 5
10 3 5 -5 -10 -15 25 -11 37 4 5 6 6 1 3 -11 -5 -15 -2 -21 9 -21 9 0 14 6 11
13 -3 8 0 11 9 7 8 -3 12 -10 8 -17 -4 -6 2 -4 12 4 10 8 16 10 12 3 -4 -6 -3
-15 3 -18 6 -4 10 -3 9 2 -4 21 3 22 23 4 20 -19 45 -20 33 -1 -3 5 0 12 6 16
7 4 9 3 6 -2 -7 -13 6 -35 24 -38 8 -2 22 -6 32 -11 10 -4 24 -2 34 6 9 8 14
9 10 3 -4 -7 3 -14 18 -18 14 -4 25 -14 25 -23 0 -15 -1 -15 -12 -1 -15 17
-53 33 -43 18 3 -6 12 -10 20 -10 7 0 15 -7 19 -15 3 -9 12 -12 22 -8 13 5 15
3 9 -8 -7 -11 -5 -11 10 1 17 14 17 13 10 -8 -6 -22 -5 -23 17 -11 20 11 21
10 11 -3 -15 -17 -7 -29 13 -21 8 3 11 10 7 17 -3 6 0 5 8 -2 11 -11 12 -14 1
-21 -11 -7 -10 -10 3 -14 10 -5 14 -3 9 5 -5 7 1 9 19 6 15 -3 25 -2 22 1 -2
4 0 13 6 21 7 13 9 12 9 -2 0 -20 15 -24 25 -7 4 6 13 8 21 5 17 -7 18 5 2 24
-11 12 -10 12 3 2 9 -6 20 -8 24 -4 5 4 5 -1 2 -10 -3 -10 -1 -20 5 -24 6 -4
8 -3 5 3 -4 6 0 16 7 22 11 9 16 9 22 0 4 -7 3 -9 -3 -6 -5 3 -10 0 -10 -8 0
-8 5 -11 11 -7 19 12 40 11 55 -1 12 -9 13 -9 7 1 -9 15 19 12 52 -6 12 -7 22
-9 21 -5 -4 21 3 22 23 3 12 -11 24 -18 27 -15 2 3 -4 12 -15 20 -18 14 -17
14 8 4 15 -7 25 -16 22 -20 -3 -5 -1 -9 5 -9 5 0 12 6 14 13 3 6 6 1 7 -13 1
-25 1 -25 10 -3 10 24 25 30 35 13 3 -6 -1 -7 -9 -4 -9 3 -16 1 -16 -6 0 -6 5
-8 10 -5 5 3 10 0 10 -7 0 -10 2 -10 9 0 4 8 11 13 15 13 21 -3 27 1 23 14 -4
8 -1 17 5 21 6 4 8 3 5 -3 -4 -6 4 -13 18 -15 13 -3 22 -1 19 3 -3 5 2 9 11 9
10 0 13 -5 9 -12 -4 -7 -3 -8 4 -4 6 4 8 14 5 24 -6 15 -5 16 12 2 17 -14 18
-13 12 4 -7 16 -5 17 9 6 19 -17 117 -21 104 -5 -6 7 -2 11 11 11 14 0 18 -5
13 -21 -6 -19 -6 -19 8 -1 12 15 17 16 23 6 6 -9 4 -11 -6 -5 -8 5 -11 4 -7 0
5 -5 20 -10 35 -11 23 -2 25 -1 11 7 -10 6 -18 15 -18 22 0 7 4 6 10 -3 8 -13
13 -13 32 -1 18 10 20 10 11 0 -18 -18 -16 -25 6 -25 13 0 17 5 13 16 -5 12
-3 13 9 3 12 -9 14 -5 13 27 0 22 3 37 8 34 5 -3 6 -15 3 -27 -5 -19 -4 -19 9
3 19 31 20 43 4 35 -7 -4 -5 0 5 8 10 9 18 19 18 24 0 4 8 6 17 5 13 -3 14 -1
4 11 -10 12 -9 16 3 21 9 3 14 2 11 -2 -3 -5 1 -9 9 -9 10 0 11 5 4 18 -10 19
5 37 16 19 12 -19 32 8 30 39 -1 17 2 28 7 25 5 -4 7 -12 4 -20 -6 -16 10 -19
19 -4 4 6 11 7 17 4 7 -5 8 -2 4 5 -9 14 24 42 38 34 5 -4 6 -1 3 4 -4 6 3 13
14 16 11 3 23 15 26 27 3 12 11 19 19 16 8 -3 13 0 11 7 -1 7 4 11 12 9 12 -3
12 -1 0 14 -12 16 -12 17 1 12 11 -4 16 0 16 12 0 10 -5 16 -11 14 -5 -3 -3 0
5 8 21 18 47 53 35 46 -6 -4 -17 -2 -25 4 -12 8 -12 9 2 4 9 -3 27 4 40 15 13
11 17 18 10 14 -8 -4 -11 1 -9 17 4 25 10 28 24 14 5 -5 2 -6 -6 -1 -10 6 -12
4 -6 -4 5 -9 13 -7 31 10 13 12 21 26 18 31 -3 4 1 11 9 14 9 3 13 14 11 27
-2 12 -2 17 2 10 3 -7 12 -9 20 -6 12 4 12 8 -3 20 -10 8 -13 12 -7 9 15 -7
56 23 48 35 -3 5 6 25 21 44 21 29 24 38 15 56 -11 19 -10 20 9 9 18 -9 22 -8
28 7 4 10 11 22 17 26 6 5 0 6 -14 3 -14 -3 -20 -3 -13 0 7 3 9 13 6 22 -3 10
-1 13 4 7 16 -19 33 -15 47 14 9 16 12 32 8 37 -4 5 4 0 17 -11 14 -11 21 -14
17 -7 -7 11 6 17 29 12 6 -1 7 2 3 5 -4 4 -3 16 3 27 9 16 13 17 27 6 13 -11
14 -11 7 1 -6 11 -4 13 8 8 10 -3 17 -2 17 2 0 5 -5 11 -10 13 -6 2 0 9 12 17
13 7 20 10 16 6 -10 -10 11 -37 23 -30 4 3 5 13 2 23 -5 13 -4 15 8 6 19 -14
54 -12 55 4 1 6 3 13 4 15 1 1 3 16 5 34 2 25 -1 31 -15 28 -16 -3 -20 5 -21
48 0 9 -4 17 -7 17 -4 0 -8 9 -9 20 -1 13 2 18 10 13 9 -5 9 -3 0 8 -15 19
-19 51 -10 67 6 8 4 12 -5 10 -7 -2 -14 6 -14 17 -1 11 -2 28 -3 38 -1 10 -5
15 -11 12 -5 -3 -10 -1 -10 4 0 6 6 11 13 11 8 0 8 3 -2 9 -8 5 -11 16 -8 24
4 11 1 14 -7 11 -7 -3 -13 2 -14 11 -5 46 -5 45 -20 32 -13 -10 -14 -8 -7 12
5 16 4 21 -4 17 -10 -7 -15 8 -14 42 1 10 -2 10 -13 1 -8 -6 -11 -16 -7 -22 3
-6 1 -7 -6 -3 -7 5 -9 12 -3 19 5 7 12 21 16 31 5 16 4 17 -9 6 -9 -7 -18 -10
-22 -6 -3 3 -1 6 6 6 7 0 9 5 6 10 -4 6 -11 7 -17 4 -7 -4 -8 -2 -4 4 4 6 14
8 24 5 9 -3 4 6 -13 20 -22 19 -32 23 -42 15 -9 -7 -13 -7 -13 0 0 5 -13 9
-29 8 -17 -1 -27 2 -24 8 4 5 -1 7 -10 3 -10 -4 -17 -1 -17 6 0 8 -4 6 -10 -3
-8 -12 -10 -12 -10 5 0 17 -2 17 -10 5 -7 -11 -10 -11 -10 -2 0 7 -4 10 -10 7
-5 -3 -10 -1 -10 5 0 6 -4 9 -9 5 -5 -3 -12 -1 -16 4 -3 6 -12 8 -20 5 -8 -4
-17 1 -21 9 -3 9 -12 13 -20 10 -8 -3 -21 7 -31 26 -10 17 -22 31 -26 31 -5 0
-5 -4 -2 -10 3 -5 1 -10 -6 -10 -7 0 -9 8 -6 21 4 15 2 19 -9 15 -7 -3 -13 -2
-12 2 5 16 -24 53 -37 48 -8 -3 -12 0 -9 7 2 7 -5 22 -16 34 -11 12 -20 26
-20 30 0 4 -12 17 -27 27 -14 11 -23 13 -18 6 5 -9 4 -11 -3 -6 -7 4 -12 14
-12 22 0 8 -5 14 -11 14 -5 0 -7 5 -4 10 3 6 -1 10 -9 10 -9 0 -16 9 -16 20 0
11 -3 20 -8 20 -4 0 -13 9 -20 21 -9 14 -10 19 -2 14 9 -6 9 -2 1 14 -7 11
-17 21 -24 21 -9 0 -8 3 1 9 10 6 6 15 -18 35 -17 14 -36 26 -41 26 -5 0 -8 6
-7 13 2 6 -3 11 -9 9 -7 -1 -13 2 -13 8 0 5 -5 10 -10 10 -6 0 -24 10 -39 21
-18 13 -35 18 -43 14 -10 -6 -10 -5 -1 5 10 11 9 16 -5 26 -9 8 -25 14 -34 14
-10 0 -17 6 -15 13 1 6 -4 11 -10 10 -7 -2 -13 2 -13 7 0 6 -7 10 -16 10 -8 0
-13 3 -11 8 2 4 -9 18 -26 32 -17 14 -28 19 -24 13 6 -9 3 -11 -7 -7 -9 3 -13
11 -10 16 4 6 -3 5 -15 -1 -17 -9 -20 -9 -15 3 4 11 -1 14 -20 12 -14 -1 -29
-5 -32 -9 -9 -9 -35 4 -28 14 6 10 5 10 -14 2z m225 -385 c-3 -8 -6 -5 -6 6
-1 11 2 17 5 13 3 -3 4 -12 1 -19z m838 -397 c3 -5 2 -12 -3 -15 -5 -3 -9 1
-9 9 0 17 3 19 12 6z m-2135 -232 c0 -5 -4 -9 -8 -9 -5 0 -9 7 -9 15 0 8 4 12
9 9 4 -3 8 -9 8 -15z m2287 -112 c0 -8 -6 -14 -14 -14 -9 0 -10 4 -2 14 6 7
12 13 14 13 1 0 2 -6 2 -13z m-2372 -87 c3 -5 1 -10 -4 -10 -6 0 -11 5 -11 10
0 6 2 10 4 10 3 0 8 -4 11 -10z m2435 -100 c0 -5 -4 -10 -10 -10 -5 0 -10 5
-10 10 0 6 5 10 10 10 6 0 10 -4 10 -10z m-15 -50 c3 -5 1 -10 -4 -10 -6 0
-11 5 -11 10 0 6 2 10 4 10 3 0 8 -4 11 -10z m-240 -109 c3 -5 2 -12 -3 -15
-5 -3 -9 1 -9 9 0 17 3 19 12 6z m-2185 -96 c-10 -12 -10 -15 0 -15 8 0 11 -3
7 -6 -14 -14 -26 7 -15 26 7 11 14 17 17 15 2 -3 -2 -11 -9 -20z m2140 15 c0
-5 -2 -10 -4 -10 -3 0 -8 5 -11 10 -3 6 -1 10 4 10 6 0 11 -4 11 -10z m-40
-55 c-7 -8 -16 -15 -21 -15 -5 0 -1 8 9 18 20 22 31 19 12 -3z m-41 -76 c-22
-13 -31 -11 -17 5 7 8 17 12 22 9 4 -3 2 -9 -5 -14z m-2086 -38 c3 -13 1 -18
-9 -14 -7 2 -10 11 -7 19 7 19 10 18 16 -5z m2007 -76 c-7 -9 -15 -13 -17 -11
-7 7 7 26 19 26 6 0 6 -6 -2 -15z m-55 -55 c3 -5 1 -10 -4 -10 -6 0 -11 5 -11
10 0 6 2 10 4 10 3 0 8 -4 11 -10z m-2035 -94 c0 -3 -4 -8 -10 -11 -5 -3 -10
-1 -10 4 0 6 5 11 10 11 6 0 10 -2 10 -4z m120 -40 c0 -3 -4 -8 -10 -11 -5 -3
-10 -1 -10 4 0 6 5 11 10 11 6 0 10 -2 10 -4z m1805 -46 c-3 -5 -12 -10 -18
-10 -7 0 -6 4 3 10 19 12 23 12 15 0z m-1645 -90 c0 -5 -5 -10 -11 -10 -5 0
-7 5 -4 10 3 6 8 10 11 10 2 0 4 -4 4 -10z m250 -75 c14 -19 14 -19 -2 -6 -10
7 -18 18 -18 24 0 6 1 8 3 6 1 -2 9 -13 17 -24z m57 -4 c0 -11 -5 -18 -9 -15
-4 3 -5 11 -1 19 7 21 12 19 10 -4z m41 -10 c11 -7 10 -9 -3 -14 -9 -4 -14 -3
-10 2 3 5 -1 12 -7 14 -7 3 -8 6 -3 6 6 0 16 -3 23 -8z m377 -90 c3 -5 0 -13
-6 -17 -7 -4 -9 -3 -5 4 3 5 0 13 -6 15 -9 4 -10 6 -1 6 6 1 14 -3 18 -8z
m419 -7 c3 -8 2 -12 -4 -9 -6 3 -10 10 -10 16 0 14 7 11 14 -7z m52 4 c5 4 5
3 1 -2 -12 -15 -34 -15 -34 0 0 9 4 11 12 4 7 -5 16 -6 21 -2z m-436 -2 c0 -3
-4 -8 -10 -11 -5 -3 -10 -1 -10 4 0 6 5 11 10 11 6 0 10 -2 10 -4z m55 -25
c-3 -2 -11 1 -18 7 -8 7 -18 8 -22 4 -5 -4 -5 -1 -1 5 5 10 11 10 26 1 11 -7
17 -14 15 -17z"/>
<path d="M596 1954 c-5 -14 -4 -15 9 -4 17 14 19 20 6 20 -5 0 -12 -7 -15 -16z"/>
<path d="M2100 1811 c0 -6 4 -13 10 -16 6 -3 7 1 4 9 -7 18 -14 21 -14 7z"/>
<path d="M2578 1233 c6 -2 9 -10 6 -15 -4 -7 -2 -8 5 -4 13 9 5 26 -12 25 -9
0 -8 -2 1 -6z"/>
<path d="M2545 1052 c-33 -15 -73 -35 -90 -44 -47 -25 -139 -128 -164 -183
-13 -27 -27 -59 -32 -70 -6 -11 -35 -47 -65 -80 -30 -33 -70 -87 -89 -120 -22
-38 -85 -110 -173 -198 -117 -116 -145 -149 -175 -211 l-36 -74 -43 15 c-24 8
-61 16 -83 18 -22 1 -48 6 -57 10 -9 4 -22 4 -29 0 -6 -4 -32 -9 -58 -10 -25
-2 -68 -13 -94 -25 -65 -29 -94 -30 -150 -3 -26 13 -52 21 -57 18 -5 -3 -11
-1 -14 4 -3 4 -20 8 -38 8 -18 0 -41 4 -50 8 -9 4 -23 3 -29 -1 -7 -4 -31 -8
-53 -9 -23 -1 -54 -8 -71 -15 -56 -25 -77 -20 -130 30 -78 73 -140 104 -236
116 -46 6 -52 6 -138 3 -44 -2 -55 1 -64 17 -6 10 -37 47 -69 80 -63 66 -154
119 -220 127 l-38 5 0 -219 0 -219 1305 0 1305 0 0 525 c0 289 -1 525 -2 524
-2 0 -30 -13 -63 -27z"/>
<path d="M55 650 c-3 -5 -2 -10 4 -10 5 0 13 5 16 10 3 6 2 10 -4 10 -5 0 -13
-4 -16 -10z"/>
</g>
</svg>
